<svg xmlns="http://www.w3.org/2000/svg" viewBox="0 0 200 200" fill="none" stroke-width="2" stroke-linecap="round" stroke-linejoin="round"><g><path d="M6.0 170.0L94.0 170.0" stroke="#161616"/><path d="M40.0 134.0L70.0 134.0" stroke="#161616"/><path d="M70.0 134.0L75.0 134.0" stroke="#161616"/><circle cx="81.5" cy="134.0" r="6.5" stroke="#161616"/><path d="M40.0 134.0L40.0 164.0" stroke="#161616"/><path d="M40.0 164.0L18.0 166.0" stroke="#161616"/><path d="M18.0 166.0L12.0 166.0" stroke="#161616"/><path d="M70.0 134.0L70.0 150.0" stroke="#161616"/><path d="M70.0 150.0L70.0 166.0" stroke="#161616"/><path d="M70.0 134.0L70.0 150.0" stroke="#FF6A3D"/><path d="M70.0 150.0L70.0 166.0" stroke="#FF6A3D"/></g><g transform="translate(100 0)"><path d="M6.0 170.0L94.0 170.0" stroke="#161616"/><path d="M40.0 134.0L70.0 134.0" stroke="#161616"/><path d="M70.0 134.0L75.0 134.0" stroke="#161616"/><circle cx="81.5" cy="134.0" r="6.5" stroke="#161616"/><path d="M40.0 134.0L40.0 164.0" stroke="#161616"/><path d="M40.0 164.0L18.0 166.0" stroke="#161616"/><path d="M18.0 166.0L12.0 166.0" stroke="#161616"/><path d="M70.0 134.0L70.0 150.0" stroke="#161616"/><path d="M70.0 150.0L70.0 166.0" stroke="#161616"/><path d="M70.0 134.0L70.0 118.0" stroke="#FF6A3D"/><path d="M70.0 118.0L70.0 102.0" stroke="#FF6A3D"/></g></svg>
