<svg xmlns="http://www.w3.org/2000/svg" viewBox="0 0 200 200" fill="none" stroke-width="2" stroke-linecap="round" stroke-linejoin="round"><g><path d="M6.0 170.0L94.0 170.0" stroke="#161616"/><path d="M52.0 163.0L22.0 163.0" stroke="#FF6A3D"/><path d="M22.0 163.0L17.0 163.0" stroke="#FF6A3D"/><circle cx="10.5" cy="163.0" r="6.5" stroke="#FF6A3D"/><path d="M52.0 163.0L66.0 146.0" stroke="#161616"/><path d="M66.0 146.0L80.0 167.0" stroke="#161616"/><path d="M80.0 167.0L86.0 167.0" stroke="#161616"/><path d="M22.0 163.0L20.0 150.0" stroke="#161616"/><path d="M20.0 150.0L12.0 156.0" stroke="#161616"/></g><g transform="translate(100 0)"><path d="M6.0 170.0L94.0 170.0" stroke="#161616"/><path d="M52.0 163.0L28.0 150.0" stroke="#FF6A3D"/><path d="M28.0 150.0L23.6 147.6" stroke="#FF6A3D"/><circle cx="17.9" cy="144.5" r="6.5" stroke="#FF6A3D"/><path d="M52.0 163.0L66.0 146.0" stroke="#161616"/><path d="M66.0 146.0L80.0 167.0" stroke="#161616"/><path d="M80.0 167.0L86.0 167.0" stroke="#161616"/><path d="M28.0 150.0L28.0 138.0" stroke="#161616"/><path d="M28.0 138.0L18.0 140.0" stroke="#161616"/></g></svg>
