<svg xmlns="http://www.w3.org/2000/svg" viewBox="0 0 200 200" fill="none" stroke-width="2" stroke-linecap="round" stroke-linejoin="round"><g><circle cx="60.0" cy="158.0" r="9.0" stroke="#161616"/><path d="M6.0 170.0L94.0 170.0" stroke="#161616"/><path d="M40.0 138.0L66.0 120.0" stroke="#FF6A3D"/><path d="M66.0 120.0L70.1 117.2" stroke="#161616"/><circle cx="75.5" cy="113.5" r="6.5" stroke="#161616"/><path d="M40.0 138.0L60.0 150.0" stroke="#FF6A3D"/><path d="M60.0 150.0L48.0 166.0" stroke="#161616"/><path d="M48.0 166.0L54.0 166.0" stroke="#161616"/><path d="M66.0 120.0L64.0 136.0" stroke="#161616"/><path d="M64.0 136.0L62.0 152.0" stroke="#161616"/></g><g transform="translate(100 0)"><circle cx="50.0" cy="130.0" r="9.0" stroke="#161616"/><path d="M6.0 170.0L94.0 170.0" stroke="#161616"/><path d="M50.0 122.0L50.0 92.0" stroke="#FF6A3D"/><path d="M50.0 92.0L50.0 87.0" stroke="#161616"/><circle cx="50.0" cy="80.5" r="6.5" stroke="#161616"/><path d="M50.0 122.0L50.0 144.0" stroke="#FF6A3D"/><path d="M50.0 144.0L50.0 166.0" stroke="#161616"/><path d="M50.0 166.0L56.0 166.0" stroke="#161616"/><path d="M50.0 92.0L50.0 108.0" stroke="#161616"/><path d="M50.0 108.0L50.0 123.0" stroke="#161616"/></g></svg>
