<svg xmlns="http://www.w3.org/2000/svg" viewBox="0 0 200 200" fill="none" stroke-width="2" stroke-linecap="round" stroke-linejoin="round"><g><path d="M18.0 142.0L52.0 142.0" stroke="#161616"/><path d="M35.0 142.0L35.0 170.0" stroke="#161616"/><path d="M50.0 98.0L50.0 122.0" stroke="#161616"/><path d="M72.0 108.0L72.0 120.0" stroke="#161616"/><path d="M34.0 140.0L38.0 110.0" stroke="#161616"/><path d="M38.0 110.0L38.7 105.0" stroke="#161616"/><circle cx="39.5" cy="98.6" r="6.5" stroke="#161616"/><path d="M34.0 140.0L56.0 140.0" stroke="#161616"/><path d="M56.0 140.0L56.0 162.0" stroke="#161616"/><path d="M56.0 162.0L62.0 162.0" stroke="#161616"/><path d="M38.0 110.0L56.0 112.0" stroke="#FF6A3D"/><path d="M56.0 112.0L72.0 114.0" stroke="#FF6A3D"/></g><g transform="translate(100 0)"><path d="M18.0 142.0L52.0 142.0" stroke="#161616"/><path d="M35.0 142.0L35.0 170.0" stroke="#161616"/><path d="M50.0 98.0L50.0 122.0" stroke="#161616"/><path d="M42.0 110.0L42.0 122.0" stroke="#161616"/><path d="M34.0 140.0L38.0 110.0" stroke="#161616"/><path d="M38.0 110.0L38.7 105.0" stroke="#161616"/><circle cx="39.5" cy="98.6" r="6.5" stroke="#161616"/><path d="M34.0 140.0L56.0 140.0" stroke="#161616"/><path d="M56.0 140.0L56.0 162.0" stroke="#161616"/><path d="M56.0 162.0L62.0 162.0" stroke="#161616"/><path d="M38.0 110.0L24.0 118.0" stroke="#FF6A3D"/><path d="M24.0 118.0L42.0 116.0" stroke="#FF6A3D"/></g></svg>
